{
	"patcher" : 	{
		"fileversion" : 1,
		"appversion" : 		{
			"major" : 6,
			"minor" : 1,
			"revision" : 7,
			"architecture" : "x86"
		}
,
		"rect" : [ 25.0, 69.0, 1132.0, 560.0 ],
		"bglocked" : 0,
		"openinpresentation" : 0,
		"default_fontsize" : 12.0,
		"default_fontface" : 0,
		"default_fontname" : "Arial",
		"gridonopen" : 0,
		"gridsize" : [ 10.0, 10.0 ],
		"gridsnaponopen" : 0,
		"statusbarvisible" : 2,
		"toolbarvisible" : 1,
		"boxanimatetime" : 200,
		"imprint" : 0,
		"enablehscroll" : 1,
		"enablevscroll" : 1,
		"devicewidth" : 0.0,
		"description" : "",
		"digest" : "",
		"tags" : "",
		"boxes" : [ 			{
				"box" : 				{
					"fontname" : "Arial",
					"fontsize" : 20.0,
					"id" : "obj-11",
					"maxclass" : "message",
					"numinlets" : 2,
					"numoutlets" : 1,
					"outlettype" : [ "" ],
					"patching_rect" : [ 910.0, 390.0, 150.0, 27.0 ],
					"text" : "also"
				}

			}
, 			{
				"box" : 				{
					"fontname" : "Arial",
					"fontsize" : 20.0,
					"id" : "obj-10",
					"maxclass" : "message",
					"numinlets" : 2,
					"numoutlets" : 1,
					"outlettype" : [ "" ],
					"patching_rect" : [ 740.0, 470.0, 150.0, 27.0 ],
					"text" : "here"
				}

			}
, 			{
				"box" : 				{
					"fontname" : "Arial",
					"fontsize" : 20.0,
					"id" : "obj-9",
					"maxclass" : "message",
					"numinlets" : 2,
					"numoutlets" : 1,
					"outlettype" : [ "" ],
					"patching_rect" : [ 580.0, 400.0, 150.0, 27.0 ],
					"text" : "stuff"
				}

			}
, 			{
				"box" : 				{
					"fontname" : "Arial",
					"fontsize" : 20.0,
					"id" : "obj-8",
					"maxclass" : "message",
					"numinlets" : 2,
					"numoutlets" : 1,
					"outlettype" : [ "" ],
					"patching_rect" : [ 480.0, 350.0, 150.0, 27.0 ],
					"text" : "some"
				}

			}
, 			{
				"box" : 				{
					"fontname" : "Arial",
					"fontsize" : 36.585987,
					"id" : "obj-3",
					"maxclass" : "newobj",
					"numinlets" : 1,
					"numoutlets" : 4,
					"outlettype" : [ "", "", "", "" ],
					"patching_rect" : [ 720.0, 220.0, 242.0, 47.0 ],
					"text" : "unpack s s s s"
				}

			}
, 			{
				"box" : 				{
					"fontname" : "Arial",
					"fontsize" : 36.585987,
					"id" : "obj-5",
					"maxclass" : "newobj",
					"numinlets" : 1,
					"numoutlets" : 0,
					"patching_rect" : [ 350.0, 280.0, 159.0, 47.0 ],
					"text" : "print also"
				}

			}
, 			{
				"box" : 				{
					"fontname" : "Arial",
					"fontsize" : 36.585987,
					"id" : "obj-7",
					"maxclass" : "newobj",
					"numinlets" : 1,
					"numoutlets" : 0,
					"patching_rect" : [ 140.0, 280.0, 160.0, 47.0 ],
					"text" : "print stuff"
				}

			}
, 			{
				"box" : 				{
					"fontname" : "Arial",
					"fontsize" : 20.0,
					"id" : "obj-6",
					"maxclass" : "message",
					"numinlets" : 2,
					"numoutlets" : 1,
					"outlettype" : [ "" ],
					"patching_rect" : [ 140.0, 200.0, 150.0, 27.0 ],
					"text" : "some stuff here"
				}

			}
, 			{
				"box" : 				{
					"id" : "obj-4",
					"maxclass" : "button",
					"numinlets" : 1,
					"numoutlets" : 1,
					"outlettype" : [ "bang" ],
					"patching_rect" : [ 140.0, 140.0, 40.0, 40.0 ]
				}

			}
, 			{
				"box" : 				{
					"fontname" : "Arial",
					"fontsize" : 36.585987,
					"id" : "obj-2",
					"maxclass" : "newobj",
					"numinlets" : 1,
					"numoutlets" : 1,
					"outlettype" : [ "" ],
					"patching_rect" : [ 350.0, 70.0, 506.0, 47.0 ],
					"text" : "loadmess some stuff here also"
				}

			}
, 			{
				"box" : 				{
					"fontname" : "Arial",
					"fontsize" : 36.585987,
					"id" : "obj-1",
					"maxclass" : "newobj",
					"numinlets" : 1,
					"numoutlets" : 1,
					"outlettype" : [ "bang" ],
					"patching_rect" : [ 140.0, 70.0, 159.0, 47.0 ],
					"text" : "loadbang"
				}

			}
 ],
		"lines" : [ 			{
				"patchline" : 				{
					"destination" : [ "obj-4", 0 ],
					"disabled" : 0,
					"hidden" : 0,
					"source" : [ "obj-1", 0 ]
				}

			}
, 			{
				"patchline" : 				{
					"destination" : [ "obj-3", 0 ],
					"disabled" : 0,
					"hidden" : 0,
					"source" : [ "obj-2", 0 ]
				}

			}
, 			{
				"patchline" : 				{
					"destination" : [ "obj-5", 0 ],
					"disabled" : 0,
					"hidden" : 0,
					"source" : [ "obj-2", 0 ]
				}

			}
, 			{
				"patchline" : 				{
					"destination" : [ "obj-10", 1 ],
					"disabled" : 0,
					"hidden" : 0,
					"source" : [ "obj-3", 2 ]
				}

			}
, 			{
				"patchline" : 				{
					"destination" : [ "obj-11", 1 ],
					"disabled" : 0,
					"hidden" : 0,
					"source" : [ "obj-3", 3 ]
				}

			}
, 			{
				"patchline" : 				{
					"destination" : [ "obj-8", 1 ],
					"disabled" : 0,
					"hidden" : 0,
					"source" : [ "obj-3", 0 ]
				}

			}
, 			{
				"patchline" : 				{
					"destination" : [ "obj-9", 1 ],
					"disabled" : 0,
					"hidden" : 0,
					"source" : [ "obj-3", 1 ]
				}

			}
, 			{
				"patchline" : 				{
					"destination" : [ "obj-6", 0 ],
					"disabled" : 0,
					"hidden" : 0,
					"source" : [ "obj-4", 0 ]
				}

			}
, 			{
				"patchline" : 				{
					"destination" : [ "obj-7", 0 ],
					"disabled" : 0,
					"hidden" : 0,
					"source" : [ "obj-6", 0 ]
				}

			}
 ],
		"dependency_cache" : [  ]
	}

}
